<mxfile host="app.diagrams.net" agent="Mozilla/5.0 (Windows NT 10.0; Win64; x64) AppleWebKit/537.36 (KHTML, like Gecko) Chrome/134.0.0.0 Safari/537.36 Edg/134.0.0.0" version="26.1.1">
  <diagram name="第 1 页" id="8VDAvuDDazpUhD35BYUc">
    <mxGraphModel dx="573" dy="353" grid="1" gridSize="10" guides="1" tooltips="1" connect="1" arrows="1" fold="1" page="1" pageScale="1" pageWidth="827" pageHeight="1169" math="0" shadow="0">
      <root>
        <mxCell id="0" />
        <mxCell id="1" parent="0" />
        <mxCell id="7sAPocCAc9o8jDWmO6VA-1" value="用户" style="shape=umlActor;verticalLabelPosition=bottom;verticalAlign=top;html=1;outlineConnect=0;" vertex="1" parent="1">
          <mxGeometry x="200" y="130" width="30" height="60" as="geometry" />
        </mxCell>
        <mxCell id="7sAPocCAc9o8jDWmO6VA-2" value="" style="endArrow=none;dashed=1;html=1;dashPattern=1 3;strokeWidth=2;rounded=0;" edge="1" parent="1">
          <mxGeometry width="50" height="50" relative="1" as="geometry">
            <mxPoint x="215" y="380" as="sourcePoint" />
            <mxPoint x="214.5" y="220" as="targetPoint" />
          </mxGeometry>
        </mxCell>
        <mxCell id="7sAPocCAc9o8jDWmO6VA-3" value="搜索平台" style="rounded=0;whiteSpace=wrap;html=1;" vertex="1" parent="1">
          <mxGeometry x="360" y="137.5" width="90" height="45" as="geometry" />
        </mxCell>
        <mxCell id="7sAPocCAc9o8jDWmO6VA-4" value="" style="endArrow=none;dashed=1;html=1;dashPattern=1 3;strokeWidth=2;rounded=0;" edge="1" parent="1">
          <mxGeometry width="50" height="50" relative="1" as="geometry">
            <mxPoint x="405" y="380" as="sourcePoint" />
            <mxPoint x="404.5800000000001" y="182.5" as="targetPoint" />
          </mxGeometry>
        </mxCell>
        <mxCell id="7sAPocCAc9o8jDWmO6VA-5" value="" style="endArrow=classic;html=1;rounded=0;entryX=0;entryY=0;entryDx=0;entryDy=0;" edge="1" parent="1" target="7sAPocCAc9o8jDWmO6VA-7">
          <mxGeometry width="50" height="50" relative="1" as="geometry">
            <mxPoint x="220" y="260" as="sourcePoint" />
            <mxPoint x="390" y="261" as="targetPoint" />
          </mxGeometry>
        </mxCell>
        <mxCell id="7sAPocCAc9o8jDWmO6VA-6" value="1：提交Config文件" style="edgeLabel;html=1;align=center;verticalAlign=middle;resizable=0;points=[];" vertex="1" connectable="0" parent="7sAPocCAc9o8jDWmO6VA-5">
          <mxGeometry x="-0.1163" y="1" relative="1" as="geometry">
            <mxPoint x="3" y="1" as="offset" />
          </mxGeometry>
        </mxCell>
        <mxCell id="7sAPocCAc9o8jDWmO6VA-7" value="" style="rounded=1;whiteSpace=wrap;html=1;" vertex="1" parent="1">
          <mxGeometry x="395" y="260" width="20" height="30" as="geometry" />
        </mxCell>
      </root>
    </mxGraphModel>
  </diagram>
</mxfile>
